<?xml version="1.0"?>
<svg width="20" height="20" xmlns="http://www.w3.org/2000/svg" xmlns:svg="http://www.w3.org/2000/svg" version="1.1">
 <title>flower [#92]</title>
 <desc>Created with Sketch.</desc>
 <g class="layer">
  <title>Layer 1</title>
  <g fill="none" fill-rule="evenodd" id="Page-1">
   <g fill="#000000" id="Dribbble-Light-Preview" transform="translate(-300.000000, -7799.000000)">
    <g id="icons" transform="translate(56.000000, 160.000000)">
     <path d="m259.13,7656.05c0.53,-0.89 0.84,-1.93 0.84,-3.05c0,-1.67 -0.68,-5.22 -1.78,-8.33c1.15,-1.11 2.24,-1.98 3.02,-2.32c0.26,-0.12 0.58,0.03 0.66,0.31c0.64,2.3 -0.46,11.45 -2.74,13.39m-2.36,-0.19c-1.49,1.47 -3.83,1.48 -5.36,0.15c-0.83,-0.74 -1.37,-1.81 -1.37,-3.01c0,-2.98 2.05,-9.86 3.61,-11.63c0.18,-0.22 0.53,-0.22 0.72,-0.01c1.55,1.77 3.61,8.6 3.61,11.64c0,1.12 -0.46,2.14 -1.21,2.86m-8.21,-0.47c-1.55,-1.69 -2.94,-10.25 -2.25,-12.73c0.07,-0.28 0.39,-0.43 0.66,-0.31c0.75,0.33 1.79,1.18 2.91,2.25c-0.98,2.75 -2.51,8.01 -1.32,10.79m13.24,-15.19c-1.21,0 -2.81,1.03 -4.41,2.47c-0.96,-2.11 -2.13,-3.67 -3.38,-3.67c-1.25,0 -2.4,1.53 -3.36,3.61c-1.24,-1.1 -3.59,-2.97 -5.08,-2.25c-2.97,1.42 -1.06,12.23 0.35,15.22c1.02,2.16 3.16,3.42 5.14,3.42l4.86,0l0,-0.01c2.86,0.06 4.96,-1.43 5.9,-3.41c1.5,-3.16 4.06,-15.38 -0.02,-15.38" fill="#000000" id="flower-[#92]"/>
    </g>
   </g>
  </g>
 </g>
</svg>